<?xml version="1.0" encoding="UTF-8"?>
<svg version="1.1" viewBox="0 0 1140 1048" width="285" height="262" xmlns="http://www.w3.org/2000/svg">
<path transform="translate(130,9)" d="m0 0h769l4 4 11 19 14 24 15 26 11 19 9 16 16 28 13 22 16 28 11 19 1 4-15 15-8 7-12 11-10 8-12 10-16 12-18 13-16 11-20 13-19 12-24 14-22 12-29 15-23 11-16 8-18 8v2l8 6 15 10 9 7 7 8 1 3v10l-3 25 17-8 48-30 22-14 26-17 22-14 23-15 27-18 16-11 20-14 14-10 17-13 13-11 7-6 3 1 16 28 13 23 10 17 15 27 12 20 11 19 2 4v5l-15 15-8 7-15 13-14 12-14 11-16 12-33 22-21 13-15 9-26 15-32 17-29 14-33 15-86 38-12 2-10 7-30 13-25 12-16 7-16 8-29 14-40 19-28 13-32 16-16 9-23 12-27 16-25 16-36 24-11 8-14 10-12 9-16 13-9 8-1 3h764l-2 5-14 24-16 28-9 17-8 13-15 26-13 23-12 21-83 1-699-1-7-10-9-15-15-26-10-17-16-27-12-21-14-25-12-21-15-26-8-13-1-7 11-12 18-18 11-9 13-11 17-13 14-10 23-16 22-14 18-11 17-10 23-13 18-10 16-8 23-11 16-8 17-9 8-2-12-12-14-11-13-10-3-6 2-25 1-8-16 8-16 10-15 10-17 11-24 15-57 36-33 22-28 19-17 12-14 10-17 13-11 9-6 5h-2l-1 3-6 4-7-10-13-23-14-24-15-26-32-56 1-5 11-12 8-8 8-7 11-10 25-20 19-14 23-16 17-11 32-19 14-8 25-14 28-15 21-10 16-8 36-16 15-7 35-16 29-14 22-12 24-11 45-20 34-15 25-11 41-18 26-12 27-14 29-16 23-14 17-11 22-14 32-22 17-13 11-9 10-8 6-7h-764l2-5 10-17 13-22 16-28 14-25 14-24 13-22 8-12 2-2z" fill="#EF7E26"/>
<path transform="translate(405,648)" d="m0 0 4 2 13 10 19 14 18 13 17 13 17 12 18 13 19 14 13 9 3 2v2l-26 14-28 15-20 12-25 16-36 24-11 8-14 10-12 9-16 13-9 8-1 3h764l-2 5-14 24-16 28-9 17-8 13-15 26-13 23-12 21-83 1-699-1-7-10-9-15-15-26-10-17-16-27-12-21-14-25-12-21-15-26-8-13-1-7 11-12 18-18 11-9 13-11 17-13 14-10 23-16 22-14 18-11 17-10 23-13 18-10 16-8 23-11 16-8 17-9z" fill="#15214C"/>
<path transform="translate(130,9)" d="m0 0h769l4 4 11 19 14 24 15 26 11 19 9 16 16 28 13 22 16 28 11 19 1 4-15 15-8 7-12 11-10 8-12 10-16 12-18 13-16 11-20 13-19 12-24 14-22 12-29 15-23 11-16 8-18 8-4-1-53-39-14-10-19-14-14-10-16-12-18-13-4-3v-2l23-12 24-13 28-17 41-26 32-22 17-13 11-9 10-8 6-7h-764l2-5 10-17 13-22 16-28 14-25 14-24 13-22 8-12 2-2z" fill="#15214C"/>
<path transform="translate(385,392)" d="m0 0 2 1-4 36-6 56-6 54-4 35-1 3-16 8-26 17-20 13-24 15-57 36-33 22-28 19-17 12-14 10-17 13-11 9-6 5h-2l-1 3-6 4-7-10-13-23-14-24-15-26-32-56 1-5 11-12 8-8 8-7 11-10 25-20 19-14 23-16 17-11 32-19 14-8 25-14 28-15 21-10 16-8 36-16 15-7 35-16 29-14z" fill="#15214C"/>
<path transform="translate(1051,288)" d="m0 0 3 1 16 28 13 23 10 17 15 27 12 20 11 19 2 4v5l-15 15-8 7-15 13-14 12-14 11-16 12-33 22-21 13-15 9-26 15-32 17-29 14-33 15-86 38-6 1-9 1 1-15 9-81 8-76 1-6 19-10 26-16 22-14 19-12 26-17 22-14 23-15 27-18 16-11 20-14 14-10 17-13 13-11z" fill="#15214C"/>
<path transform="translate(130,9)" d="m0 0h769l4 4 11 19 14 24 15 26 11 19 9 16 16 28 13 22 16 28 11 19 1 4-15 15-8 7-12 11-10 8-12 10-16 12-18 13-16 11h-3v-3l15-10 14-10h2v-2l8-5 3-2 12-10 13-10 8-7 7-7h2l1-3 4-1v-3h2l2-4 8-7 3-4h2l-10-18-8-13-12-21-6-9-6-10-6-12-8-14-14-24-6-11-6-10-6-11-3-6-10-15-3-5-11-18-5-7-76-1h-143l-226 1h-325l-4 2-12 18-6 10-8 14-15 27-9 15-8 13-4 7-6 10-6 12-12 20-1 2h723l29 1 4 2-6 1h-757l2-5 10-17 13-22 16-28 14-25 14-24 13-22 8-12 2-2z" fill="#0B0C26"/>
<path transform="translate(124,838)" d="m0 0 4 5 6 7 7 11 3 5 2 5 4 7 3 7 11 17 6 10 6 11 4 7 3 7 7 11 6 11 12 20 6 11 13 21 9 16 6 8 2 1 90 1 420 1h152l107-1 7-1 7-14 5-8 7-12 7-11 8-13 7-12 6-11 9-16 7-14 14-24 7-14-2 1h-726l-25-1-1-2 71-1h691l-2 5-14 24-16 28-9 17-8 13-15 26-13 23-12 21-83 1-699-1-7-10-9-15-15-26-10-17-16-27-12-21-14-25-12-21-15-26-7-12z" fill="#0B0D27"/>
<path transform="translate(795,9)" d="m0 0h104l4 4 11 19 14 24 15 26 11 19 9 16 16 28 13 22 16 28 11 19 1 4-15 15-8 7-12 11-10 8-12 10-16 12-18 13-16 11h-3v-3l15-10 14-10h2v-2l8-5 3-2 12-10 13-10 8-7 7-7h2l1-3 4-1v-3h2l2-4 8-7 3-4h2l-10-18-8-13-12-21-6-9-6-10-6-12-8-14-14-24-6-11-6-10-6-11-3-6-10-15-3-5-11-18-5-7-76-1-26-1z" fill="#0A0B24"/>
<path transform="translate(1051,288)" d="m0 0 3 1 16 28 13 23 10 17 15 27 12 20 11 19 2 4v5l-15 15-8 7-15 13-14 12-14 11-4 1 1-4h2v-2l10-7 8-7h2l1-3h2v-2l11-8 7-7 6-5 5-6 8-7 3-3-1-5-10-16-12-20-9-16-6-9-3-6-9-16-7-14-8-14-5-7-6-11-2-1v-2h-2v2l-4 1-2 4h-2l-2 4-14 10-13 10-9 6-3 3-5 3-26 18-15 10-4 1v2l-9 5h-2l2-4 16-10 20-14 23-16 14-10 17-13 13-11z" fill="#0A0B23"/>
<path transform="translate(315,425)" d="m0 0 4 1-32 16-14 6-15 7-16 8-11 6-36 18-14 8-23 13-16 10-17 10-14 10-10 7-11 8-10 7-9 7-15 12h-2l-2 4-8 6-1-4 14-12 18-14 19-14 39-26 29-17 14-8 25-14 28-15 21-10 16-8 36-16z" fill="#0C0E29"/>
<path transform="translate(789,171)" d="m0 0 2 1-2 4-7 7-11 8-16 12-15 11-15 10-13 9-8 4-23 15-19 12-14 8-22 12-12 6-5 4-2 4-7-2v-2l23-12 24-13 28-17 41-26 32-22 17-13 11-9 10-8z" fill="#0B0D27"/>
<path transform="translate(1051,288)" d="m0 0 2 1zm-1 1m-1 1m-1 1m-1 1m-2 1 2 1-4 6h-2l-2 4-14 10-13 10-9 6-3 3-5 3-26 18-15 10-4 1v2l-9 5h-2l2-4 16-10 20-14 23-16 14-10 17-13 13-11z" fill="#0B0C26"/>
<path transform="translate(855,424)" d="m0 0 2 1-5 5-16 10-12 7-14 10-16 8-1 2h-2v2l-6 4-3 24-1 5-3-1 3-33 16-8 20-12 19-12z" fill="#0B0C27"/>
<path transform="translate(402,649)" d="m0 0 5 1 1 2h-5v2l-16 8-33 15-15 7-13 6-6 3h-2v-2l33-17 39-19z" fill="#0A0B24"/>
<path transform="translate(436,813)" d="m0 0v3l-11 8-15 10-23 16-26 20-2-1 2-4 8-6h2v-2l13-10 11-8 22-15h2v-2l13-7z" fill="#0A0B24"/>
<path transform="translate(1131,425)" d="m0 0 2 2v5l-15 15-8 7-15 13-14 12-14 11-4 1 1-4h2v-2l10-7 8-7h2l1-3h2v-2l11-8 7-7 6-5 5-6 8-7 3-3z" fill="#0B0D27"/>
<path transform="translate(30,597)" d="m0 0v3l-9 10-8 8-1 5 14 26 12 21v5h-2l-13-23-16-28 1-5 11-12 8-8z" fill="#0A0B23"/>
<path transform="translate(118,529)" d="m0 0 2 1-5 5-22 16-13 9-9 7-15 12h-2l-2 4-8 6-1-4 14-12 18-14 19-14z" fill="#0B0C26"/>
<path transform="translate(984,247)" d="m0 0m-1 1m-2 1 4 2-10 8-12 10-16 12-18 13-16 11h-3v-3l15-10 14-10h2v-2l8-5 3-2 12-10 13-10z" fill="#0A0B25"/>
<path transform="translate(40,679)" d="m0 0 4 2 8 14 6 10 10 17 4 5 6 10 3 8-4 1-16-28-15-26-6-10z" fill="#0A0B24"/>
<path transform="translate(277,714)" d="m0 0h2l-1 3-22 14-13 8-11 7-9 7h-3v2l-15 9h-2v2l-4 1v-2l17-12 27-18 24-15z" fill="#0B0D27"/>
<path transform="translate(539,752)" d="m0 0 4 1-17 10-27 14-27 16-9 6h-2l2-4 7-5 6-3 11-7 14-7 17-9 16-9 5-1z" fill="#0C0E29"/>
<path transform="translate(385,392)" d="m0 0 2 1-1 11-2 1-2-3-2 1h-6l-12 4-13 6h-3v-2z" fill="#0C0E28"/>
<path transform="translate(124,838)" d="m0 0 4 5 6 7 7 11 3 5 2 5 4 7 2 6-2 2-16-28-9-15z" fill="#0A0B24"/>
<path transform="translate(780,469)" d="m0 0h1v11l-2 21 1 2h-2v9l-5 45-2 3v-9l8-76z" fill="#16224D"/>
<path transform="translate(792,463)" d="m0 0h2l-1 4h-2v2l-6 4-3 24-1 5-3-1 3-33z" fill="#090920"/>
<path transform="translate(315,425)" d="m0 0 4 1-32 16-12 5-2-1v-2l26-12z" fill="#0D102D"/>
<path transform="translate(1019,519)" d="m0 0h4v2l-26 16-8 5h-5v-2l11-6 9-6 5-1v-2z" fill="#0B0C25"/>
<path transform="translate(238,738)" d="m0 0 2 1-5 5-12 9h-3v2l-15 9h-2v2l-4 1v-2l17-12z" fill="#0B0D27"/>
<path transform="translate(984,247)" d="m0 0m-1 1m-2 1 4 2-10 8-12 10-9 7-2-3 12-10 13-10z" fill="#0B0D27"/>
<path transform="translate(151,803)" d="m0 0 2 1-6 7-6 5-10 13-7 6-2 2 1-5 9-10z" fill="#0E1231"/>
<path transform="translate(778,503)" d="m0 0h2l-1 22-4 23h-1v-11z" fill="#09081E"/>
<path transform="translate(30,597)" d="m0 0v3l-9 10-8 8-6 4 2-4 9-10 9-9z" fill="#0C0F2A"/>
<path transform="translate(703,234)" d="m0 0 2 1-5 5-18 11-4 3-3-1 5-4 14-9z" fill="#0C0E2A"/>
<path transform="translate(1051,288)" d="m0 0 2 1zm-1 1m-1 1m-1 1m-1 1m-2 1 2 1-4 6h-2l-2 4-7 5h-3l2-4 13-11z" fill="#0B0D28"/>
<path transform="translate(617,285)" d="m0 0h3v2l-9 5-4 6-7-2v-2z" fill="#0B0C26"/>
<path transform="translate(484,782)" d="m0 0m-1 1 1 3-20 12-3 1 2-4 7-5 6-3z" fill="#0B0D27"/>
<path transform="translate(339,680)" d="m0 0 3 1-3 3-13 6-6 3h-2v-2z" fill="#0C0E2A"/>
<path transform="translate(756,388)" d="m0 0h2v3l-11 5-6-1 2-3z" fill="#0B0C25"/>
<path transform="translate(953,559)" d="m0 0h3v2l-17 9h-3l2-4 10-4z" fill="#0B0D27"/>
<path transform="translate(639,273)" d="m0 0 2 1-4 4-15 8-3-1 4-3z" fill="#0C0E2A"/>
<path transform="translate(464,694)" d="m0 0 14 7 3 5-6-1-11-10z" fill="#0B0D27"/>
<path transform="translate(1019,519)" d="m0 0h4v2l-15 9v-3l4-4z" fill="#0B0D28"/>
<path transform="translate(766,190)" d="m0 0 2 1-5 6-12 9-2-1 4-5 12-9z" fill="#0C0E29"/>
<path transform="translate(95,752)" d="m0 0 3 1-1 3h-2l-1 3-6 4-1-3 1-4 6-3z" fill="#0C0E2A"/>
<path transform="translate(539,752)" d="m0 0 4 1-17 10-5 1 4-4 12-6h2z" fill="#0C0E29"/>
<path transform="translate(253,729)" d="m0 0m-2 1 2 1-5 5-8 5-2-1 5-5z" fill="#0B0C25"/>
<path transform="translate(719,224)" d="m0 0m-2 1 2 1-4 5-9 5-2-1 4-4z" fill="#0B0D28"/>
<path transform="translate(147,511)" d="m0 0 2 1-5 5-7 4-2-1 5-5z" fill="#0C0E28"/>
<path transform="translate(359,405)" d="m0 0 2 1-3 3-9 4h-3v-2z" fill="#0D102D"/>
<path transform="translate(951,362)" d="m0 0m-2 1 2 1-1 3-9 5h-2l2-4z" fill="#0B0D28"/>
<path transform="translate(886,404)" d="m0 0 3 1-8 5-5 4-5 1 4-4z" fill="#0C0F2B"/>
<path transform="translate(831,350)" d="m0 0 3 1v2l-10 5-4-1 3-2 3-1 1-2z" fill="#0B0D27"/>
<path transform="translate(979,543)" d="m0 0h5v2l-9 5-3-1 3-3h2v-2z" fill="#0B0C26"/>
<path transform="translate(836,436)" d="m0 0 2 1-3 4-7 4h-3l1-3z" fill="#0C0E2A"/>
<path transform="translate(315,425)" d="m0 0 4 1-14 7-2-1 3-1v-2z" fill="#0C0F2B"/>
<path transform="translate(135,821)" d="m0 0v3l-4 5-7 6-2 2v-4l8-7z" fill="#090920"/>
<path transform="translate(495,776)" d="m0 0 3 2-14 7 2-4z" fill="#0D102D"/>
<path transform="translate(158,504)" d="m0 0 2 1-5 5-5 3-2-1v-2z" fill="#0D102E"/>
<path transform="translate(1035,508)" d="m0 0 3 1v2l-6 4-3-1 2-4z" fill="#0B0C26"/>
<path transform="translate(210,757)" d="m0 0 2 1-4 5-5 1v2l-4 1v-2z" fill="#0D102D"/>
<path transform="translate(845,430)" d="m0 0 2 1-4 5-5 3-2-1 5-5z" fill="#0B0D28"/>
<path transform="translate(726,219)" d="m0 0 2 1-4 5-5 3-2-1 5-5z" fill="#0A0B24"/>
<path transform="translate(238,738)" d="m0 0 2 1-5 5-4 3-2-1 5-5z" fill="#0C0F2A"/>
</svg>
